<?xml version="1.0" standalone="no"?>
<svg xmlns:xlink="http://www.w3.org/1999/xlink" id="wave" style="transform:rotate(0deg); transition: 0.3s" viewBox="0 0 1440 490" version="1.1" xmlns="http://www.w3.org/2000/svg"><defs><linearGradient id="sw-gradient-0" x1="0" x2="0" y1="1" y2="0"><stop stop-color="rgba(255, 76.768, 19.525, 1)" offset="0%"/><stop stop-color="rgba(132.374, 83.376, 120.824, 1)" offset="100%"/></linearGradient></defs><path style="transform:translate(0, 0px); opacity:1" fill="url(#sw-gradient-0)" d="M0,392L20,375.7C40,359,80,327,120,294C160,261,200,229,240,196C280,163,320,131,360,171.5C400,212,440,327,480,326.7C520,327,560,212,600,155.2C640,98,680,98,720,147C760,196,800,294,840,302.2C880,310,920,229,960,187.8C1000,147,1040,147,1080,187.8C1120,229,1160,310,1200,343C1240,376,1280,359,1320,294C1360,229,1400,114,1440,98C1480,82,1520,163,1560,228.7C1600,294,1640,343,1680,302.2C1720,261,1760,131,1800,73.5C1840,16,1880,33,1920,81.7C1960,131,2000,212,2040,220.5C2080,229,2120,163,2160,179.7C2200,196,2240,294,2280,318.5C2320,343,2360,294,2400,277.7C2440,261,2480,278,2520,302.2C2560,327,2600,359,2640,310.3C2680,261,2720,131,2760,81.7C2800,33,2840,65,2860,81.7L2880,98L2880,490L2860,490C2840,490,2800,490,2760,490C2720,490,2680,490,2640,490C2600,490,2560,490,2520,490C2480,490,2440,490,2400,490C2360,490,2320,490,2280,490C2240,490,2200,490,2160,490C2120,490,2080,490,2040,490C2000,490,1960,490,1920,490C1880,490,1840,490,1800,490C1760,490,1720,490,1680,490C1640,490,1600,490,1560,490C1520,490,1480,490,1440,490C1400,490,1360,490,1320,490C1280,490,1240,490,1200,490C1160,490,1120,490,1080,490C1040,490,1000,490,960,490C920,490,880,490,840,490C800,490,760,490,720,490C680,490,640,490,600,490C560,490,520,490,480,490C440,490,400,490,360,490C320,490,280,490,240,490C200,490,160,490,120,490C80,490,40,490,20,490L0,490Z"/><defs><linearGradient id="sw-gradient-1" x1="0" x2="0" y1="1" y2="0"><stop stop-color="rgba(243, 106, 62, 1)" offset="0%"/><stop stop-color="rgba(56.287, 255, 11, 1)" offset="100%"/></linearGradient></defs><path style="transform:translate(0, 50px); opacity:0.9" fill="url(#sw-gradient-1)" d="M0,294L20,285.8C40,278,80,261,120,245C160,229,200,212,240,179.7C280,147,320,98,360,98C400,98,440,147,480,212.3C520,278,560,359,600,392C640,425,680,408,720,383.8C760,359,800,327,840,310.3C880,294,920,294,960,277.7C1000,261,1040,229,1080,220.5C1120,212,1160,229,1200,245C1240,261,1280,278,1320,285.8C1360,294,1400,294,1440,277.7C1480,261,1520,229,1560,245C1600,261,1640,327,1680,351.2C1720,376,1760,359,1800,343C1840,327,1880,310,1920,294C1960,278,2000,261,2040,277.7C2080,294,2120,343,2160,375.7C2200,408,2240,425,2280,383.8C2320,343,2360,245,2400,245C2440,245,2480,343,2520,334.8C2560,327,2600,212,2640,212.3C2680,212,2720,327,2760,383.8C2800,441,2840,441,2860,441L2880,441L2880,490L2860,490C2840,490,2800,490,2760,490C2720,490,2680,490,2640,490C2600,490,2560,490,2520,490C2480,490,2440,490,2400,490C2360,490,2320,490,2280,490C2240,490,2200,490,2160,490C2120,490,2080,490,2040,490C2000,490,1960,490,1920,490C1880,490,1840,490,1800,490C1760,490,1720,490,1680,490C1640,490,1600,490,1560,490C1520,490,1480,490,1440,490C1400,490,1360,490,1320,490C1280,490,1240,490,1200,490C1160,490,1120,490,1080,490C1040,490,1000,490,960,490C920,490,880,490,840,490C800,490,760,490,720,490C680,490,640,490,600,490C560,490,520,490,480,490C440,490,400,490,360,490C320,490,280,490,240,490C200,490,160,490,120,490C80,490,40,490,20,490L0,490Z"/><defs><linearGradient id="sw-gradient-2" x1="0" x2="0" y1="1" y2="0"><stop stop-color="rgba(62, 144.9, 243, 1)" offset="0%"/><stop stop-color="rgba(255, 255, 255, 1)" offset="100%"/></linearGradient></defs><path style="transform:translate(0, 100px); opacity:0.8" fill="url(#sw-gradient-2)" d="M0,343L20,310.3C40,278,80,212,120,179.7C160,147,200,147,240,171.5C280,196,320,245,360,285.8C400,327,440,359,480,383.8C520,408,560,425,600,383.8C640,343,680,245,720,187.8C760,131,800,114,840,106.2C880,98,920,98,960,114.3C1000,131,1040,163,1080,212.3C1120,261,1160,327,1200,351.2C1240,376,1280,359,1320,318.5C1360,278,1400,212,1440,155.2C1480,98,1520,49,1560,81.7C1600,114,1640,229,1680,302.2C1720,376,1760,408,1800,383.8C1840,359,1880,278,1920,269.5C1960,261,2000,327,2040,318.5C2080,310,2120,229,2160,212.3C2200,196,2240,245,2280,220.5C2320,196,2360,98,2400,65.3C2440,33,2480,65,2520,106.2C2560,147,2600,196,2640,253.2C2680,310,2720,376,2760,375.7C2800,376,2840,310,2860,277.7L2880,245L2880,490L2860,490C2840,490,2800,490,2760,490C2720,490,2680,490,2640,490C2600,490,2560,490,2520,490C2480,490,2440,490,2400,490C2360,490,2320,490,2280,490C2240,490,2200,490,2160,490C2120,490,2080,490,2040,490C2000,490,1960,490,1920,490C1880,490,1840,490,1800,490C1760,490,1720,490,1680,490C1640,490,1600,490,1560,490C1520,490,1480,490,1440,490C1400,490,1360,490,1320,490C1280,490,1240,490,1200,490C1160,490,1120,490,1080,490C1040,490,1000,490,960,490C920,490,880,490,840,490C800,490,760,490,720,490C680,490,640,490,600,490C560,490,520,490,480,490C440,490,400,490,360,490C320,490,280,490,240,490C200,490,160,490,120,490C80,490,40,490,20,490L0,490Z"/></svg>